<svg data-v-423bf9ae="" xmlns="http://www.w3.org/2000/svg" viewBox="0 0 358 90" class="iconLeft"><!----><!----><!----><g data-v-423bf9ae="" id="ab87505f-a62b-49e6-bd86-c00e12220421" fill="white" transform="matrix(5.309734423650313,0,0,5.309734423650313,111.59355732246833,-0.6637151340262406)"><path d="M0.35 3.75L0.32 3.29L0.32 3.29Q0.92 3.23 1.41 3.15L1.41 3.15L1.41 3.15Q1.90 3.07 2.14 3.01L2.14 3.01L2.14 3.01Q2.37 2.95 2.41 2.95L2.41 2.95L2.41 2.95Q2.66 2.95 2.66 3.16L2.66 3.16L2.66 3.25L2.66 3.56L2.66 3.77L2.65 9.98L2.65 9.98Q3.12 9.98 3.99 9.07L3.99 9.07L3.99 9.07Q4.86 8.16 4.86 7.69L4.86 7.69L4.86 7.69Q4.86 7.45 4.56 7.45L4.56 7.45L4.56 7.45Q4.44 7.45 4.37 7.37L4.37 7.37L4.37 7.37Q4.30 7.29 4.30 7.20L4.30 7.20L4.30 7.20Q4.30 6.99 4.56 6.97L4.56 6.97L4.56 6.97Q5.04 7.01 5.92 7.01L5.92 7.01L5.92 7.01Q6.78 7.01 7.25 6.97L7.25 6.97L7.25 6.97Q7.50 6.97 7.50 7.20L7.50 7.20L7.50 7.20Q7.50 7.28 7.46 7.34L7.46 7.34L7.46 7.34Q7.41 7.41 7.35 7.43L7.35 7.43L7.35 7.43Q7.29 7.45 7.22 7.47L7.22 7.47L7.22 7.47Q7.15 7.49 7.14 7.49L7.14 7.49L7.14 7.49Q6.58 7.71 5.81 8.31L5.81 8.31L5.81 8.31Q5.04 8.90 4.55 9.39L4.55 9.39L4.06 9.88L7.88 13.69L7.88 13.69Q8.05 13.86 8.05 13.97L8.05 13.97L8.05 13.97Q8.05 14.03 8.01 14.06L8.01 14.06L8.01 14.06Q7.97 14.10 7.92 14.11L7.92 14.11L7.88 14.11L7.88 14.11Q6.82 14.11 6.16 14.17L6.16 14.17L6.16 14.17Q4.05 11.66 3.63 11.22L3.63 11.22L3.63 11.22Q3.22 10.78 2.87 10.67L2.87 10.67L2.87 10.67Q2.72 10.61 2.62 10.57L2.62 10.57L2.62 10.57Q2.63 10.77 2.63 11.07L2.63 11.07L2.63 11.07Q2.63 11.52 2.62 12.07L2.62 12.07L2.62 12.07Q2.60 12.63 2.60 12.75L2.60 12.75L2.60 12.75Q2.60 12.89 2.60 12.98L2.60 12.98L2.60 12.98Q2.60 13.08 2.63 13.16L2.63 13.16L2.63 13.16Q2.65 13.24 2.65 13.29L2.65 13.29L2.65 13.29Q2.66 13.34 2.72 13.39L2.72 13.39L2.72 13.39Q2.77 13.44 2.79 13.46L2.79 13.46L2.79 13.46Q2.81 13.48 2.91 13.51L2.91 13.51L2.91 13.51Q3.01 13.54 3.05 13.54L3.05 13.54L3.05 13.54Q3.09 13.55 3.24 13.59L3.24 13.59L3.24 13.59Q3.39 13.62 3.47 13.64L3.47 13.64L3.47 14.11L0.45 14.11L0.45 13.64L0.45 13.64Q0.52 13.62 0.69 13.59L0.69 13.59L0.69 13.59Q0.85 13.55 0.89 13.54L0.89 13.54L0.89 13.54Q0.92 13.52 1.04 13.50L1.04 13.50L1.04 13.50Q1.15 13.47 1.17 13.43L1.17 13.43L1.17 13.43Q1.19 13.40 1.26 13.34L1.26 13.34L1.26 13.34Q1.33 13.29 1.33 13.21L1.33 13.21L1.33 13.21Q1.33 13.13 1.36 13.03L1.36 13.03L1.36 13.03Q1.40 12.94 1.40 12.79L1.40 12.79L1.40 12.79Q1.40 12.64 1.41 12.48L1.41 12.48L1.41 12.48Q1.41 12.32 1.41 12.08L1.41 12.08L1.41 12.08Q1.41 10.70 1.43 8.90L1.43 8.90L1.43 8.90Q1.44 7.11 1.44 6.66L1.44 6.66L1.44 6.66Q1.44 5.89 1.44 5.43L1.44 5.43L1.44 5.43Q1.43 4.96 1.36 4.61L1.36 4.61L1.36 4.61Q1.29 4.26 1.25 4.11L1.25 4.11L1.25 4.11Q1.22 3.96 1.04 3.87L1.04 3.87L1.04 3.87Q0.85 3.78 0.76 3.77L0.76 3.77L0.76 3.77Q0.67 3.77 0.35 3.75L0.35 3.75ZM8.61 12.42L8.61 12.42L8.61 12.42Q8.61 11.93 8.71 11.55L8.71 11.55L8.71 11.55Q8.81 11.17 9.03 10.92L9.03 10.92L9.03 10.92Q9.25 10.67 9.48 10.50L9.48 10.50L9.48 10.50Q9.70 10.33 10.12 10.21L10.12 10.21L10.12 10.21Q10.53 10.09 10.83 10.03L10.83 10.03L10.83 10.03Q11.13 9.97 11.68 9.86L11.68 9.86L11.68 9.86Q12.22 9.76 12.56 9.69L12.56 9.69L12.56 9.69Q12.56 9.49 12.57 9.20L12.57 9.20L12.57 9.20Q12.57 8.90 12.57 8.85L12.57 8.85L12.57 8.85Q12.57 8.20 12.11 7.92L12.11 7.92L12.11 7.92Q11.65 7.64 11.05 7.64L11.05 7.64L11.05 7.64Q10.35 7.64 10.09 7.97L10.09 7.97L10.09 7.97Q9.84 8.30 9.55 9.38L9.55 9.38L8.97 9.32L8.97 9.32Q8.97 9.28 8.98 9.04L8.98 9.04L8.98 9.04Q8.99 8.79 9.02 8.60L9.02 8.60L9.02 8.60Q9.06 8.41 9.14 8.12L9.14 8.12L9.14 8.12Q9.21 7.83 9.40 7.61L9.40 7.61L9.40 7.61Q9.59 7.39 9.87 7.18L9.87 7.18L9.87 7.18Q10.15 6.97 10.61 6.86L10.61 6.86L10.61 6.86Q11.07 6.75 11.68 6.75L11.68 6.75L11.68 6.75Q12.29 6.75 12.73 6.89L12.73 6.89L12.73 6.89Q13.16 7.03 13.38 7.20L13.38 7.20L13.38 7.20Q13.59 7.38 13.71 7.68L13.71 7.68L13.71 7.68Q13.83 7.98 13.85 8.16L13.85 8.16L13.85 8.16Q13.86 8.34 13.86 8.62L13.86 8.62L13.86 8.62Q13.86 9.69 13.83 10.90L13.83 10.90L13.83 10.90Q13.80 12.11 13.80 12.32L13.80 12.32L13.80 12.32Q13.80 12.67 14.12 13.17L14.12 13.17L14.12 13.17Q14.43 13.66 14.43 13.75L14.43 13.75L14.43 13.75Q14.43 13.82 14.31 13.86L14.31 13.86L14.31 13.86Q13.33 14.18 13.23 14.18L13.23 14.18L13.23 14.18Q13.09 14.18 12.97 13.98L12.97 13.98L12.97 13.98Q12.85 13.78 12.75 13.48L12.75 13.48L12.75 13.48Q12.66 13.19 12.64 13.17L12.64 13.17L12.64 13.17Q12.43 13.31 12.12 13.52L12.12 13.52L12.12 13.52Q11.82 13.73 11.70 13.81L11.70 13.81L11.70 13.81Q11.58 13.89 11.36 14L11.36 14L11.36 14Q11.14 14.11 10.98 14.15L10.98 14.15L10.98 14.15Q10.81 14.20 10.56 14.22L10.56 14.22L10.56 14.22Q10.30 14.25 9.98 14.25L9.98 14.25L9.98 14.25Q9.25 14.25 8.93 13.72L8.93 13.72L8.93 13.72Q8.61 13.19 8.61 12.42ZM9.87 12.28L9.87 12.28L9.87 12.28Q9.87 13.31 10.81 13.31L10.81 13.31L10.81 13.31Q11.63 13.31 12.47 12.61L12.47 12.61L12.47 12.61Q12.57 12.53 12.57 11.42L12.57 11.42L12.57 11.42Q12.57 10.65 12.56 10.23L12.56 10.23L12.56 10.23Q12.31 10.32 11.92 10.44L11.92 10.44L11.92 10.44Q11.54 10.57 11.38 10.63L11.38 10.63L11.38 10.63Q11.21 10.68 10.95 10.77L10.95 10.77L10.95 10.77Q10.68 10.86 10.59 10.92L10.59 10.92L10.59 10.92Q10.50 10.98 10.34 11.06L10.34 11.06L10.34 11.06Q10.18 11.14 10.14 11.22L10.14 11.22L10.14 11.22Q10.09 11.30 10.01 11.40L10.01 11.40L10.01 11.40Q9.93 11.51 9.91 11.64L9.91 11.64L9.91 11.64Q9.90 11.77 9.88 11.92L9.88 11.92L9.88 11.92Q9.87 12.07 9.87 12.28ZM15.22 7.74L15.19 7.21L15.19 7.21Q15.75 7.15 16.34 6.94L16.34 6.94L16.34 6.94Q16.93 6.73 17.08 6.73L17.08 6.73L17.08 6.73Q17.26 6.73 17.33 6.89L17.33 6.89L17.33 6.89Q17.40 7.04 17.40 7.48L17.40 7.48L17.40 7.67L17.40 7.67Q17.49 7.63 17.73 7.49L17.73 7.49L17.73 7.49Q17.98 7.35 18.08 7.29L18.08 7.29L18.08 7.29Q18.19 7.24 18.39 7.13L18.39 7.13L18.39 7.13Q18.59 7.01 18.72 6.96L18.72 6.96L18.72 6.96Q18.84 6.92 19.02 6.85L19.02 6.85L19.02 6.85Q19.19 6.79 19.34 6.77L19.34 6.77L19.34 6.77Q19.49 6.75 19.63 6.75L19.63 6.75L19.63 6.75Q20.44 6.75 21.38 7.74L21.38 7.74L21.38 7.74Q22.74 6.75 23.72 6.75L23.72 6.75L23.72 6.75Q24.29 6.75 24.68 7.08L24.68 7.08L24.68 7.08Q25.06 7.42 25.18 7.76L25.18 7.76L25.18 7.76Q25.30 8.11 25.30 8.40L25.30 8.40L25.30 8.40Q25.30 9.39 25.28 10.60L25.28 10.60L25.28 10.60Q25.27 11.80 25.27 12.05L25.27 12.05L25.27 12.05Q25.27 13.16 25.39 13.38L25.39 13.38L25.39 13.38Q25.51 13.61 26.00 13.64L26.00 13.64L26.00 13.64Q26.07 13.64 26.10 13.64L26.10 13.64L26.10 14.11L23.24 14.11L23.24 13.64L23.24 13.64Q23.77 13.61 23.91 13.42L23.91 13.42L23.91 13.42Q24.04 13.23 24.04 12.56L24.04 12.56L24.04 12.56Q24.04 12.38 24.03 11.26L24.03 11.26L24.03 11.26Q24.02 10.15 24.02 9.13L24.02 9.13L24.02 9.13Q24.02 8.72 24.00 8.53L24.00 8.53L24.00 8.53Q23.97 8.33 23.86 8.13L23.86 8.13L23.86 8.13Q23.74 7.92 23.48 7.85L23.48 7.85L23.48 7.85Q23.21 7.78 22.76 7.78L22.76 7.78L22.76 7.78Q22.37 7.78 21.36 8.32L21.36 8.32L21.36 8.32Q21.35 10.14 21.35 12.05L21.35 12.05L21.35 12.05Q21.35 12.36 21.36 12.57L21.36 12.57L21.36 12.57Q21.38 12.78 21.38 12.95L21.38 12.95L21.38 12.95Q21.38 13.12 21.43 13.22L21.43 13.22L21.43 13.22Q21.49 13.33 21.50 13.39L21.50 13.39L21.50 13.39Q21.50 13.45 21.61 13.50L21.61 13.50L21.61 13.50Q21.71 13.54 21.73 13.55L21.73 13.55L21.73 13.55Q21.76 13.57 21.92 13.59L21.92 13.59L21.92 13.59Q22.09 13.62 22.15 13.64L22.15 13.64L22.15 14.11L19.29 14.11L19.29 13.64L19.29 13.64Q19.81 13.61 19.93 13.42L19.93 13.42L19.93 13.42Q20.05 13.23 20.05 12.61L20.05 12.61L20.05 12.61Q20.05 10.99 20.05 9.90L20.05 9.90L20.05 9.90Q20.06 8.81 20.06 8.67L20.06 8.67L20.06 8.67Q20.06 8.22 19.80 8.00L19.80 8.00L19.80 8.00Q19.54 7.78 18.82 7.78L18.82 7.78L18.82 7.78Q18.54 7.78 18.12 7.96L18.12 7.96L18.12 7.96Q17.70 8.13 17.43 8.30L17.43 8.30L17.43 8.30Q17.33 11.48 17.33 12.10L17.33 12.10L17.33 12.10Q17.33 12.45 17.33 12.66L17.33 12.66L17.33 12.66Q17.33 12.88 17.37 13.05L17.37 13.05L17.37 13.05Q17.40 13.22 17.42 13.29L17.42 13.29L17.42 13.29Q17.43 13.37 17.52 13.44L17.52 13.44L17.52 13.44Q17.61 13.51 17.65 13.52L17.65 13.52L17.65 13.52Q17.70 13.52 17.86 13.57L17.86 13.57L17.86 13.57Q18.03 13.61 18.12 13.64L18.12 13.64L18.12 14.11L15.26 14.11L15.26 13.64L15.26 13.64Q15.72 13.61 15.90 13.47L15.90 13.47L15.90 13.47Q16.07 13.33 16.07 13.05L16.07 13.05L16.07 13.05Q16.07 11.09 16.07 10.15L16.07 10.15L16.07 10.15Q16.06 9.21 16.03 8.67L16.03 8.67L16.03 8.67Q16.00 8.13 15.97 8.05L15.97 8.05L15.97 8.05Q15.95 7.97 15.86 7.90L15.86 7.90L15.85 7.88L15.85 7.88Q15.75 7.80 15.22 7.74L15.22 7.74ZM30.69 14.11L26.77 14.11L26.77 13.64L26.77 13.64Q27.10 13.59 27.22 13.59L27.22 13.59L27.22 13.59Q27.33 13.58 27.50 13.50L27.50 13.50L27.50 13.50Q27.68 13.43 27.71 13.36L27.71 13.36L27.71 13.36Q27.73 13.30 27.79 13.09L27.79 13.09L27.79 13.09Q27.85 12.88 27.85 12.67L27.85 12.67L27.85 12.67Q27.85 12.46 27.85 12.03L27.85 12.03L27.85 11.56L27.85 11.56Q27.85 8.75 27.75 8.26L27.75 8.26L27.75 8.26Q27.65 7.77 27.08 7.73L27.08 7.73L27.08 7.73Q26.99 7.71 26.94 7.71L26.94 7.71L26.91 7.18L26.91 7.18Q27.47 7.13 28.06 6.92L28.06 6.92L28.06 6.92Q28.64 6.71 28.80 6.71L28.80 6.71L28.80 6.71Q28.98 6.71 29.05 6.87L29.05 6.87L29.05 6.87Q29.12 7.03 29.12 7.45L29.12 7.45L29.13 7.98L29.13 7.98Q30.37 6.79 31.08 6.79L31.08 6.79L31.08 6.79Q31.60 6.79 31.79 6.92L31.79 6.92L31.79 6.92Q31.99 7.04 31.99 7.38L31.99 7.38L31.99 7.38Q31.99 7.49 31.77 8.89L31.77 8.89L31.26 8.89L31.26 8.89Q31.19 7.84 30.55 7.84L30.55 7.84L30.55 7.84Q30.18 7.84 29.66 8.17L29.66 8.17L29.66 8.17Q29.13 8.50 29.13 9.04L29.13 9.04L29.13 9.04Q29.13 9.44 29.13 11.01L29.13 11.01L29.13 11.01Q29.12 12.59 29.12 12.84L29.12 12.84L29.12 12.84Q29.12 13.27 29.37 13.40L29.37 13.40L29.37 13.40Q29.62 13.54 30.55 13.66L30.55 13.66L30.55 13.66Q30.65 13.68 30.69 13.68L30.69 13.68L30.69 14.11ZM32.55 12.42L32.55 12.42L32.55 12.42Q32.55 11.93 32.65 11.55L32.65 11.55L32.65 11.55Q32.75 11.17 32.97 10.92L32.97 10.92L32.97 10.92Q33.19 10.67 33.42 10.50L33.42 10.50L33.42 10.50Q33.64 10.33 34.05 10.21L34.05 10.21L34.05 10.21Q34.47 10.09 34.77 10.03L34.77 10.03L34.77 10.03Q35.07 9.97 35.62 9.86L35.62 9.86L35.62 9.86Q36.16 9.76 36.50 9.69L36.50 9.69L36.50 9.69Q36.50 9.49 36.50 9.20L36.50 9.20L36.50 9.20Q36.51 8.90 36.51 8.85L36.51 8.85L36.51 8.85Q36.51 8.20 36.05 7.92L36.05 7.92L36.05 7.92Q35.59 7.64 34.99 7.64L34.99 7.64L34.99 7.64Q34.29 7.64 34.03 7.97L34.03 7.97L34.03 7.97Q33.78 8.30 33.49 9.38L33.49 9.38L32.91 9.32L32.91 9.32Q32.91 9.28 32.92 9.04L32.92 9.04L32.92 9.04Q32.93 8.79 32.96 8.60L32.96 8.60L32.96 8.60Q33.00 8.41 33.07 8.12L33.07 8.12L33.07 8.12Q33.15 7.83 33.34 7.61L33.34 7.61L33.34 7.61Q33.53 7.39 33.81 7.18L33.81 7.18L33.81 7.18Q34.09 6.97 34.55 6.86L34.55 6.86L34.55 6.86Q35.01 6.75 35.62 6.75L35.62 6.75L35.62 6.75Q36.23 6.75 36.67 6.89L36.67 6.89L36.67 6.89Q37.10 7.03 37.32 7.20L37.32 7.20L37.32 7.20Q37.53 7.38 37.65 7.68L37.65 7.68L37.65 7.68Q37.77 7.98 37.79 8.16L37.79 8.16L37.79 8.16Q37.80 8.34 37.80 8.62L37.80 8.62L37.80 8.62Q37.80 9.69 37.77 10.90L37.77 10.90L37.77 10.90Q37.74 12.11 37.74 12.32L37.74 12.32L37.74 12.32Q37.74 12.67 38.06 13.17L38.06 13.17L38.06 13.17Q38.37 13.66 38.37 13.75L38.37 13.75L38.37 13.75Q38.37 13.82 38.25 13.86L38.25 13.86L38.25 13.86Q37.27 14.18 37.17 14.18L37.17 14.18L37.17 14.18Q37.03 14.18 36.91 13.98L36.91 13.98L36.91 13.98Q36.79 13.78 36.69 13.48L36.69 13.48L36.69 13.48Q36.60 13.19 36.58 13.17L36.58 13.17L36.58 13.17Q36.37 13.31 36.06 13.52L36.06 13.52L36.06 13.52Q35.76 13.73 35.64 13.81L35.64 13.81L35.64 13.81Q35.52 13.89 35.30 14L35.30 14L35.30 14Q35.08 14.11 34.92 14.15L34.92 14.15L34.92 14.15Q34.75 14.20 34.50 14.22L34.50 14.22L34.50 14.22Q34.24 14.25 33.92 14.25L33.92 14.25L33.92 14.25Q33.19 14.25 32.87 13.72L32.87 13.72L32.87 13.72Q32.55 13.19 32.55 12.42ZM33.81 12.28L33.81 12.28L33.81 12.28Q33.81 13.31 34.75 13.31L34.75 13.31L34.75 13.31Q35.57 13.31 36.41 12.61L36.41 12.61L36.41 12.61Q36.51 12.53 36.51 11.42L36.51 11.42L36.51 11.42Q36.51 10.65 36.50 10.23L36.50 10.23L36.50 10.23Q36.25 10.32 35.86 10.44L35.86 10.44L35.86 10.44Q35.48 10.57 35.31 10.63L35.31 10.63L35.31 10.63Q35.15 10.68 34.89 10.77L34.89 10.77L34.89 10.77Q34.62 10.86 34.53 10.92L34.53 10.92L34.53 10.92Q34.44 10.98 34.28 11.06L34.28 11.06L34.28 11.06Q34.12 11.14 34.08 11.22L34.08 11.22L34.08 11.22Q34.03 11.30 33.95 11.40L33.95 11.40L33.95 11.40Q33.87 11.51 33.85 11.64L33.85 11.64L33.85 11.64Q33.84 11.77 33.82 11.92L33.82 11.92L33.82 11.92Q33.81 12.07 33.81 12.28ZM39.17 7.74L39.13 7.21L39.13 7.21Q39.70 7.15 40.29 6.94L40.29 6.94L40.29 6.94Q40.87 6.73 41.02 6.73L41.02 6.73L41.02 6.73Q41.22 6.73 41.29 6.89L41.29 6.89L41.29 6.89Q41.36 7.06 41.36 7.48L41.36 7.48L41.36 7.67L41.36 7.67Q42.97 6.76 43.99 6.76L43.99 6.76L43.99 6.76Q44.80 6.76 45.15 7.26L45.15 7.26L45.15 7.26Q45.50 7.76 45.50 8.40L45.50 8.40L45.50 13.08L45.50 13.08Q45.50 13.38 45.63 13.50L45.63 13.50L45.63 13.50Q45.77 13.61 46.24 13.64L46.24 13.64L46.24 14.11L43.39 14.11L43.39 13.64L43.39 13.64Q43.92 13.59 44.05 13.47L44.05 13.47L44.05 13.47Q44.18 13.34 44.18 13.02L44.18 13.02L44.18 8.58L44.18 8.58Q44.18 8.23 43.97 8.04L43.97 8.04L43.97 8.04Q43.75 7.85 43.52 7.82L43.52 7.82L43.52 7.82Q43.29 7.78 42.95 7.78L42.95 7.78L42.95 7.78Q42.69 7.78 42.18 7.95L42.18 7.95L42.18 7.95Q41.68 8.11 41.40 8.30L41.40 8.30L41.40 8.30Q41.38 9.13 41.36 10.03L41.36 10.03L41.36 10.03Q41.33 10.93 41.31 11.49L41.31 11.49L41.31 11.49Q41.30 12.04 41.30 12.38L41.30 12.38L41.30 12.38Q41.30 13.23 41.44 13.42L41.44 13.42L41.44 13.42Q41.58 13.61 42.13 13.64L42.13 13.64L42.13 14.11L39.19 14.11L39.19 13.64L39.19 13.64Q39.48 13.59 39.60 13.55L39.60 13.55L39.60 13.55Q39.72 13.51 39.84 13.44L39.84 13.44L39.84 13.44Q39.96 13.37 39.99 13.17L39.99 13.17L39.99 13.17Q40.03 12.96 40.04 12.73L40.04 12.73L40.04 12.73Q40.05 12.50 40.05 12.01L40.05 12.01L40.05 12.01Q40.05 11.83 40.01 10.04L40.01 10.04L40.01 10.04Q39.97 8.26 39.96 8.20L39.96 8.20L39.96 8.20Q39.94 8.13 39.92 8.07L39.92 8.07L39.92 8.07Q39.90 8.01 39.87 7.97L39.87 7.97L39.87 7.97Q39.83 7.92 39.81 7.90L39.81 7.90L39.81 7.90Q39.79 7.87 39.73 7.84L39.73 7.84L39.73 7.84Q39.68 7.81 39.65 7.80L39.65 7.80L39.65 7.80Q39.62 7.80 39.54 7.78L39.54 7.78L39.54 7.78Q39.47 7.77 39.44 7.76L39.44 7.76L39.44 7.76Q39.41 7.76 39.31 7.75L39.31 7.75L39.31 7.75Q39.21 7.74 39.17 7.74L39.17 7.74Z"></path></g><!----><g data-v-423bf9ae="" id="c239ae82-0607-4420-896c-8e9e1867d659" transform="matrix(1.4634146341463414,0,0,1.4634146341463414,-26.045726124833266,-28.036585365853654)" stroke="none" fill="white"><path d="M78.8 47l-9.4-16.3c-4.1-7-11.3-11.2-19.4-11.2-8.1 0-15.4 4.2-19.4 11.2L21.2 47c-4.1 7-4.1 15.6 0 22.6 4.1 7 11.3 11.4 19.4 11.4h18.8c8.1 0 15.4-4.4 19.4-11.4 4.1-7 4.1-15.6 0-22.6zm-10.4 2c3.3 5.8 3.3 12.6 0 18.4-1.9 3.3-4.6 5.8-7.8 7.3 1.7-1.5 3.1-3.3 4.3-5.3 4.1-7 4.1-15.4 0-22.4l-3-5.2c.9.1 1.7.2 2.6.4l3.9 6.8zm-7.8-11.3c-8.1 0-15.4 4.2-19.4 11.2l-2.5 4.4c-.6-.5-1.1-1.1-1.6-1.7l4-6.9c3.3-5.8 9.3-9.2 15.9-9.2 3.9 0 7.5 1.2 10.6 3.3-2.3-.7-4.6-1.1-7-1.1zm-6.4 11.1c1.7 2.9 2.5 6.2 2.5 9.2h-5.6c-3.4 0-6.5-.8-9.3-2.4l2.8-4.7c1.7-2.9 4-5.3 6.8-6.8l2.8 4.7zm-25-4.3c.5 2.3 1.3 4.4 2.5 6.4C35.8 57.9 43 62 51.1 62h5.1c-.2 1-.4 2-.7 2h-8c-6.7 0-12.6-3.2-15.9-9-1.9-3.3-2.7-6.9-2.4-10.5zm34.5-11.9c-2.1-.7-4.4-1-6.7-1-8.1 0-15.4 4.2-19.4 11.2l-3 5.2c-.4-.8-.7-1.6-1-2.4l3.9-6.8c3.3-5.8 9.3-9.2 15.9-9.2 3.9-.1 7.4 1 10.3 3zm-38 18.2C26.2 53 27 55 28.2 57c4.1 7 11.3 11 19.4 11h6c-.5 1-1 2-1.6 3h-7.9c-6.7 0-12.6-3.7-15.9-9.5-1.9-3.2-2.8-7.1-2.5-10.7zm32 18.6c4.1-7 4.1-15.4 0-22.4l-2.5-4.4c.7-.2 1.5-.4 2.2-.5l4 6.9c3.3 5.8 3.3 12.6 0 18.4-1.9 3.4-4.8 5.9-8.1 7.5 1.6-1.6 3.2-3.4 4.4-5.5zm-7.7-46c3.8 0 7.3 1.1 10.3 3.1-2.2-.7-4.4-1-6.8-1-8.1 0-15.4 4.2-19.4 11.2L32.7 39c.1-2.5.7-5 1.9-7.4 3.5-5.1 9.1-8.2 15.4-8.2zm-25.4 44c-1.9-3.2-2.7-6.9-2.5-10.4.5 2.2 1.3 4.6 2.5 6.6C28.7 70.6 36 75 44.1 75h2.7c-2.2 1-4.7 1.6-7.4 1.8-6.2-.4-11.6-4-14.8-9.4zm50.8 0c-1.9 3.3-4.6 5.8-7.8 7.3 1.6-1.5 3.1-3.3 4.3-5.3 4.1-7 4.1-15.4 0-22.4l-1.3-2.3c2.1 1.4 4 3.2 5.4 5.4 2.7 5.4 2.5 11.8-.6 17.3z"></path></g><!----></svg>